<?xml version="1.0" encoding="UTF-8"?>
<svg id="Layer_2" data-name="Layer 2" xmlns="http://www.w3.org/2000/svg" viewBox="0 0 124.03 128.18">
  <defs>
    <style>
      .cls-1, .cls-2 {
        fill: #000;
      }

      .cls-2 {
        fill-rule: evenodd;
      }
    </style>
  </defs>
  <g id="Layer_1-2" data-name="Layer 1">
    <g>
      <path class="cls-1" d="M3.75,73.7v-19.99h6.98c1.07,0,1.99.14,2.76.43.77.29,1.4.68,1.9,1.18.5.5.87,1.09,1.11,1.77.24.68.36,1.42.36,2.22,0,1.66-.6,2.99-1.79,3.99-1.19,1-3.04,1.5-5.55,1.5h-3.54v8.92h-2.22ZM5.97,62.9h3.77c.92,0,1.7-.08,2.33-.24.63-.16,1.13-.39,1.51-.69.38-.3.65-.69.82-1.15.17-.46.25-.99.25-1.58,0-1.2-.36-2.11-1.08-2.73-.72-.62-1.83-.93-3.32-.93h-4.26v7.31Z"/>
      <path class="cls-1" d="M20.98,53.7v13.93c0,.58.1,1.13.3,1.64.2.51.5.96.9,1.34.4.38.9.68,1.49.9.59.22,1.27.33,2.03.33s1.44-.11,2.03-.33c.59-.22,1.09-.52,1.49-.9.4-.38.7-.83.9-1.34.2-.51.3-1.06.3-1.64v-13.93h2.18v13.76c0,.98-.17,1.86-.51,2.64-.34.77-.81,1.42-1.42,1.95-.61.53-1.34.93-2.18,1.22-.85.28-1.78.42-2.8.42s-1.95-.14-2.8-.42c-.85-.28-1.57-.69-2.18-1.22-.61-.53-1.08-1.18-1.42-1.95-.34-.77-.51-1.65-.51-2.64v-13.76h2.18Z"/>
      <path class="cls-1" d="M36.04,73.7v-19.99h6.42c2.18,0,3.84.46,4.97,1.37,1.14.91,1.7,2.21,1.7,3.89,0,1.42-.37,2.55-1.11,3.38-.74.83-1.7,1.44-2.88,1.83l4.24,9.53h-2.41l-4.04-9.08h-4.68v9.08h-2.22ZM38.25,62.73h4.01c1.53,0,2.69-.29,3.48-.87.78-.58,1.18-1.51,1.18-2.78,0-.66-.11-1.22-.33-1.68-.22-.45-.54-.81-.94-1.08-.41-.27-.9-.46-1.47-.57-.57-.11-1.22-.17-1.94-.17h-3.99v7.14Z"/>
      <path class="cls-1" d="M63.88,53.7v1.88h-9.77v6.7h6.95v1.88h-6.95v7.64h10.33v1.88h-12.54v-19.99h11.99Z"/>
      <path class="cls-1" d="M73.26,55.59v18.11h-2.22v-18.11h-5.98v-1.88h14.18v1.88h-5.98Z"/>
      <path class="cls-1" d="M92.9,53.7v1.88h-9.77v6.7h6.95v1.88h-6.95v7.64h10.33v1.88h-12.54v-19.99h11.99Z"/>
      <path class="cls-1" d="M107.95,67.61c-.22.9-.51,1.72-.88,2.46-.37.75-.83,1.39-1.37,1.93-.55.54-1.2.96-1.97,1.25-.76.3-1.64.44-2.63.44-1.1,0-2.1-.2-3-.61-.91-.4-1.69-1.01-2.34-1.83-.66-.82-1.17-1.85-1.54-3.11-.37-1.26-.55-2.74-.55-4.44,0-1.58.17-2.99.5-4.23.33-1.24.82-2.28,1.45-3.14.64-.85,1.42-1.5,2.34-1.95.92-.45,1.97-.67,3.14-.67,1.81,0,3.25.49,4.32,1.48,1.07.99,1.82,2.38,2.25,4.17l-1.99.59c-.18-.68-.4-1.3-.65-1.84-.25-.55-.57-1.01-.94-1.39-.38-.38-.83-.67-1.37-.88-.54-.21-1.17-.31-1.89-.31s-1.36.16-1.97.48c-.61.32-1.14.82-1.59,1.49-.45.67-.8,1.52-1.06,2.54-.26,1.02-.39,2.24-.39,3.64s.13,2.62.39,3.65c.26,1.03.63,1.88,1.12,2.54.48.66,1.06,1.16,1.72,1.48.66.32,1.4.48,2.21.48.75,0,1.4-.13,1.93-.39.53-.26.98-.61,1.35-1.04.37-.43.67-.92.9-1.48.23-.56.42-1.13.57-1.72l1.94.38Z"/>
      <path class="cls-1" d="M124.03,53.7v19.99h-2.22v-9.53h-9.58v9.53h-2.22v-19.99h2.22v8.58h9.58v-8.58h2.22Z"/>
      <path class="cls-1" d="M22.69,77.96h5.37c1.35,0,2.58.21,3.7.64,1.12.42,2.07,1.06,2.85,1.9.78.84,1.39,1.88,1.83,3.13.43,1.25.65,2.69.65,4.33,0,1.48-.19,2.82-.58,4.04-.39,1.22-.97,2.27-1.74,3.16-.78.89-1.73,1.57-2.87,2.06-1.14.49-2.45.73-3.95.73h-5.26v-19.99ZM24.91,96.07h2.99c2.31,0,4.05-.68,5.22-2.04,1.17-1.36,1.76-3.38,1.76-6.08,0-1.46-.17-2.7-.5-3.72-.33-1.02-.8-1.86-1.4-2.52-.6-.65-1.32-1.13-2.17-1.43-.85-.3-1.78-.44-2.8-.44h-3.1v16.23Z"/>
      <path class="cls-1" d="M41.77,77.96v19.99h-2.22v-19.99h2.22Z"/>
      <path class="cls-1" d="M59.31,88.35v9.61h-1.83v-1.83h-.06c-.52.7-1.24,1.23-2.17,1.58-.93.35-1.95.53-3.06.53s-2.19-.21-3.14-.62c-.95-.42-1.77-1.04-2.46-1.88-.69-.84-1.23-1.91-1.62-3.2-.39-1.29-.58-2.81-.58-4.57s.19-3.28.58-4.57c.39-1.29.93-2.36,1.62-3.2.69-.84,1.51-1.47,2.46-1.88.95-.42,2-.62,3.14-.62.85,0,1.64.11,2.38.32.74.21,1.41.55,2.02,1.02.61.47,1.15,1.08,1.62,1.81.47.74.86,1.64,1.18,2.71l-2.1.42c-.5-1.61-1.16-2.74-1.99-3.41-.83-.66-1.83-1-2.99-1-.74,0-1.45.14-2.13.42-.68.28-1.29.74-1.81,1.38-.53.65-.95,1.5-1.27,2.58-.32,1.07-.48,2.41-.48,4.01s.16,2.94.48,4.01c.32,1.07.75,1.93,1.27,2.58.53.65,1.13,1.11,1.81,1.38.68.28,1.39.42,2.13.42.81,0,1.52-.12,2.12-.35.6-.23,1.1-.55,1.5-.96.4-.41.69-.88.89-1.41.19-.54.29-1.11.29-1.72v-1.69h-4.51v-1.88h6.73Z"/>
      <path class="cls-1" d="M64.69,77.96v19.99h-2.22v-19.99h2.22Z"/>
      <path class="cls-1" d="M74.79,79.84v18.11h-2.22v-18.11h-5.98v-1.88h14.18v1.88h-5.98Z"/>
      <path class="cls-1" d="M78.41,97.95l6.15-19.99h3.3l6.15,19.99h-2.33l-1.88-6.26h-7.17l-1.88,6.26h-2.33ZM83.17,89.81h6.06l-2.88-10.3h-.3l-2.88,10.3Z"/>
      <path class="cls-1" d="M95.67,97.95v-19.99h2.22v18.11h9.47v1.88h-11.69Z"/>
      <path class="cls-1" d="M44,26.75c0,5.23,2.04,10.14,5.73,13.84,3.7,3.7,8.61,5.73,13.84,5.73s10.14-2.04,13.84-5.73c3.7-3.7,5.73-8.61,5.73-13.84v-1.81h-3.62v1.81c0,8.79-7.15,15.95-15.95,15.95s-15.95-7.15-15.95-15.95,7.15-15.95,15.95-15.95h2.93l-4.57,4.65,2.58,2.54,8.85-9L64.4,0l-2.57,2.56,4.61,4.62h-2.87c-5.23,0-10.14,2.04-13.84,5.73-3.7,3.7-5.73,8.61-5.73,13.84Z"/>
    </g>
    <g>
      <path class="cls-1" d="M5.37,120.43c0,1.61.01,1.75.08,2.6l-.06.06c-.61.01-.71.03-1.31.05l-.05-.08v-.47c-.23.2-.82.66-1.81.66-1.3,0-2.21-.88-2.21-2.17,0-1.74,1.46-2.3,3.8-2.57l.22-.03c0-.35,0-.6-.12-.81-.13-.23-.43-.48-1.08-.48-.85,0-1.43.26-1.98.49l-.1-.07c.03-.6.03-.68.04-.95l.08-.08c.73-.26,1.48-.43,2.25-.43.96,0,1.9.32,2.17,1.34.09.36.09,1.08.09,1.62v1.29ZM3.91,119.48c-1.31.19-2.54.38-2.54,1.53,0,.06,0,1.18,1.23,1.18.81,0,1.27-.44,1.42-.57v-2.17l-.12.03Z"/>
      <path class="cls-1" d="M71,121.35c-.05.61-.06.79-.09,1.29l-.08.09c-.33.17-1.14.57-2.46.57-2.85,0-4.52-1.89-4.52-4.79,0-.64.05-2.21,1.18-3.45,1.1-1.21,2.51-1.34,3.43-1.34,1.2,0,1.95.26,2.38.42l.05.1c-.07.47-.08.6-.12,1.16l-.12.05c-.26-.17-.92-.59-2.07-.59-2.08,0-3.21,1.43-3.21,3.62,0,2.46,1.34,3.6,3.13,3.6,1.22,0,1.99-.51,2.39-.79l.09.05Z"/>
      <path class="cls-1" d="M78.22,120.88c-.14.64-.42,1.14-.84,1.57-.57.57-1.34.79-2.25.79-1.17,0-1.91-.44-2.33-.87-.88-.9-.9-2.22-.9-2.65,0-.49.03-1.77.9-2.64.36-.38,1.12-.91,2.42-.91.88,0,1.75.29,2.33.94.6.69.77,1.6.79,2.51,0,.44-.03.87-.12,1.26ZM76.54,117.9c-.25-.4-.66-.74-1.39-.74-.25,0-.98.03-1.43.75-.35.53-.39,1.29-.39,1.83s.01,1.83,1.04,2.35c.23.12.51.17.77.17.48,0,1.11-.16,1.48-.87.3-.59.31-1.46.3-1.73,0-.32-.05-1.2-.38-1.77Z"/>
      <path class="cls-1" d="M79.81,116.51c.66-.1,1.01-.18,1.39-.26l.08.09-.04.66c.46-.32,1.18-.83,2.2-.83,1.12,0,1.49.64,1.68.94.31-.23,1.27-.94,2.5-.94.48,0,1.03.16,1.39.52.61.59.62,1.08.62,2.2v1.11c0,1.48.01,1.85.08,3.02l-.08.09c-.62,0-.73.01-1.33.04l-.08-.08c.03-1.08.04-2.26.04-3.32,0-.82,0-1.1-.06-1.4-.12-.56-.42-1.02-1.14-1.02-.32,0-.95.09-1.66.66.04.27.05,1.21.05,1.59v.74c0,1.33.01,1.78.08,2.69l-.07.09c-.68,0-.75.01-1.37.04l-.08-.08c.05-1.17.07-2.67.07-3.48,0-.65,0-.97-.09-1.33-.1-.42-.33-.94-1.09-.94-.47,0-1.03.18-1.64.66v2.22c0,1.44.04,2.08.09,2.81l-.08.09c-.68,0-.73,0-1.35.04l-.08-.08c.03-.52.05-1.26.05-2.6,0-2.45-.06-3.26-.14-3.86l.06-.09Z"/>
      <path class="cls-1" d="M92.86,116.88c.26-.21.88-.7,1.9-.7,1.65,0,2.81,1.35,2.81,3.19,0,2.01-1.34,3.74-4.08,3.74-.25,0-.4-.01-.58-.03.01,1.56.04,1.9.1,3.12l-.08.08c-.46.01-.91.03-1.37.04l-.06-.08c.03-.79.05-1.61.05-2.94,0-.77-.01-1.54-.01-2.3-.01-2.01-.01-2.92-.17-4.41l.06-.08c.64-.1.78-.14,1.37-.26l.09.08-.03.54ZM93.43,122.14c1.72,0,2.7-1.09,2.7-2.69,0-1.35-.71-2.18-1.75-2.18-.7,0-1.2.34-1.5.55-.01.68-.03,1.34-.03,2,0,.77.01,1.53.03,2.29.17.01.33.04.55.04Z"/>
      <path class="cls-1" d="M104.01,120.43c0,1.61.01,1.75.08,2.6l-.07.06c-.61.01-.71.03-1.31.05l-.05-.08v-.47c-.23.2-.82.66-1.81.66-1.3,0-2.21-.88-2.21-2.17,0-1.74,1.46-2.3,3.8-2.57l.22-.03c0-.35,0-.6-.12-.81-.13-.23-.43-.48-1.08-.48-.85,0-1.43.26-1.98.49l-.1-.07c.03-.6.03-.68.04-.95l.08-.08c.73-.26,1.48-.43,2.25-.43.96,0,1.9.32,2.17,1.34.09.36.09,1.08.09,1.62v1.29ZM102.56,119.48c-1.31.19-2.54.38-2.54,1.53,0,.06,0,1.18,1.24,1.18.81,0,1.27-.44,1.42-.57v-2.17l-.12.03Z"/>
      <path class="cls-1" d="M111.58,123.09c-.62.01-.7.01-1.3.05l-.09-.09c0-.14.01-.29.01-.43.01-.64.01-1.27.01-1.91,0-2-.01-2.13-.08-2.4-.25-.99-.99-.99-1.17-.99-.78,0-1.38.46-1.73.73-.01,2.26.01,3.45.1,4.97l-.08.08c-.64.01-.74.01-1.37.05l-.07-.09c.01-.73.04-1.43.04-2.39,0-2.08-.09-3.18-.16-4.05l.08-.09c.65-.12.77-.14,1.38-.26l.09.09v.68c.33-.23,1.13-.81,2.28-.81.32,0,.73.05,1.08.25.34.2.61.49.75.85.17.39.18.78.19,1.59v1.52c.04,1.52.05,2.11.09,2.6l-.08.08Z"/>
      <path class="cls-1" d="M118.53,116.42c-.74,1.83-1.99,5.27-2.31,6.18-.4,1.18-.79,2.37-1.07,3.58l-.12.1c-.65.01-.77.01-1.38.04l-.05-.09.05-.09c.23-.48.43-.99.65-1.5.18-.43.4-.84.55-1.3.01-.03.03-.07.04-.11,0-.16-1.94-5.39-2.5-6.72l.05-.12c.65-.05.78-.05,1.44-.13l.08.08c.35,1.17.52,1.72.81,2.56l.82,2.48.74-2.29c.27-.9.6-1.96.81-2.71l.09-.08c.33,0,.68,0,1.26-.01l.04.12Z"/>
    </g>
    <g>
      <path class="cls-2" d="M12.88,120.57l.47.09.22.03.27.03.33-.03.33-.03.3-.09.14-.03.17-.06.27-.14.14-.06.14-.08.25-.17.25-.19.11-.11.11-.11.11-.11.09-.14.08-.11.09-.14.14-.28.11-.28.06-.16.03-.14.05-.34.03-.36-.03-.25-.03-.25-.03-.22-.05-.22-.06-.19-.08-.2-.08-.17-.11-.14-.22-.28-.19-.23-.17-.17-.16-.11,1.82.11.11-.11.08-.76-.08-.14h-3.17l-.44-.03-.47.03-.44.03-.44.06-.19.06-.22.06-.22.06-.19.08-.19.11-.19.11-.19.11-.19.14-.16.17-.16.2-.19.23-.16.28-.08.16-.09.17-.05.2-.06.2-.06.19-.03.22-.03.23v.25l.03.31.03.28.03.28.09.25.08.22.08.19.11.2.11.14.28.31.14.11.14.11.28.22.28.16-.47.84-.52.81.06.17.8.36-.36.25-.38.34-.17.19-.19.2-.16.25-.17.25-.11.28-.11.31-.03.14-.03.17-.03.36.03.22.03.25.03.23.09.19.08.2.08.2.11.19.14.17.14.14.16.17.17.14.16.11.19.11.19.11.19.11.22.08.19.06.22.08.22.06.22.03.47.06.44.03.52-.03.22-.03.25-.02.25-.06.22-.05.22-.09.22-.08.22-.09.19-.11.2-.11.19-.11.16-.14.16-.14.14-.17.16-.17.11-.17.11-.2.11-.19.06-.19.08-.23.03-.22.03-.25.03-.22v-.2l-.03-.19-.03-.17-.06-.16-.05-.17-.06-.17-.08-.16-.11-.14-.11-.14-.11-.14-.14-.14-.16-.14-.16-.11-.17-.11-.19-.11-.22-.09-.28-.14-.38-.14-1.43-.42-1.6-.51.58-.98h0ZM12.55,122.76l1.38.42.66.2.58.2.22.08.31.17.14.09.17.11.14.14.11.17.11.19.05.09.03.11.03.14.03.11v.14l.03.14-.03.17-.03.19-.03.17-.08.17-.09.16-.11.17-.11.17-.16.17-.16.14-.19.14-.22.11-.22.09-.28.08-.28.06-.33.03-.33.03-.25-.03h-.25l-.22-.03-.19-.06-.22-.06-.16-.06-.16-.08-.16-.06-.14-.11-.14-.08-.14-.11-.11-.08-.11-.11-.08-.11-.08-.11-.06-.14-.14-.25-.06-.22-.05-.25-.03-.22.03-.2.03-.19.06-.2.05-.19.06-.17.08-.17.11-.17.11-.14.25-.28.22-.22.22-.22.22-.2h0ZM16.05,117.45l-.03.22v.22l-.06.22-.05.22-.09.2-.05.11-.06.08-.11.2-.14.17-.17.17-.19.14-.19.14-.19.09-.25.08-.25.09-.25.03-.3.03-.19-.03h-.22l-.22-.06-.19-.06-.19-.08-.19-.09-.19-.11-.16-.14-.17-.14-.16-.17-.05-.09-.06-.11-.05-.08-.06-.11-.05-.11-.03-.11-.03-.14-.06-.11v-.14l-.03-.14-.03-.14v-.14l.03-.25.03-.22.03-.22.09-.22.08-.2.11-.2.11-.19.14-.17.17-.17.19-.14.19-.14.22-.09.25-.08.25-.06.27-.05h.58l.11.03.14.03.25.06.19.08.22.09.19.11.17.14.14.17.14.17.11.19.08.17.08.19.08.23.03.2.03.22.03.22h0Z"/>
      <path class="cls-2" d="M25.99,118.7v-.76l-.06-.39-.05-.42-.06-.22-.06-.19-.06-.22-.08-.2-.22-.42-.11-.22-.14-.2-.17-.19-.14-.17-.16-.17-.19-.14-.16-.14-.17-.11-.19-.09-.19-.08-.39-.14-.19-.05-.2-.03-.22-.03-.19-.03-.19-.03h-.22l-.24.03h-.25l-.22.06-.22.03-.22.05-.22.06-.19.05-.22.09-.16.11-.19.08-.2.11-.16.14-.16.11-.14.14-.14.17-.16.17-.11.17-.14.17-.11.19-.11.17-.19.42-.16.42-.05.22-.06.22-.08.47-.06.5-.03.28v.53l.03.25.03.26.03.22.08.48.03.11.03.11.08.22.06.2.11.22.09.19.11.2.11.19.06.08.06.09.14.19.14.17.14.17.16.14.17.14.16.14.39.23.38.19.22.09.22.08.22.06.25.06.25.03.25.03.52.03h.55l.25-.03.25-.03.22-.06.2-.06.19-.03.19-.08.33-.14.33-.14.3-.17.28-.14.08-.19.08-1.03-.14-.09-.19.17-.22.17-.3.19-.33.2-.19.11-.22.09-.22.08-.22.06-.25.06-.27.02-.31.03-.27.03h-.17l-.19-.03-.36-.05-.19-.06-.19-.06-.44-.17-.22-.11-.11-.06-.11-.09-.19-.17-.11-.08-.08-.09-.19-.22-.19-.25-.16-.28-.16-.28-.11-.31-.08-.25-.09-.28-.03-.25-.06-.23v-.25l-.03-.45h6.8l.08-.11h0ZM19.19,117.89l.03-.19.03-.2.14-.5.11-.25.11-.28.16-.28.22-.28.22-.23.22-.19.25-.17.28-.11.3-.11.14-.06.14-.03.17-.03h.14l.33-.03h.19l.22.03.27.06.31.09.14.06.17.06.16.11.14.11.17.14.14.17.31.36.14.25.08.22.08.22.06.22.08.42v.23l.03.19h-5.64Z"/>
      <polygon class="cls-2" points="28.44 123.48 28.36 121.36 28.33 119.76 28.3 118.23 28.28 116.3 28.5 116.1 28.77 115.93 29.08 115.74 29.44 115.54 29.6 115.43 29.82 115.34 30.01 115.26 30.23 115.21 30.46 115.15 30.7 115.12 30.95 115.09 31.2 115.07 31.42 115.09 31.67 115.12 31.89 115.18 32.08 115.24 32.27 115.34 32.44 115.43 32.57 115.54 32.71 115.68 32.77 115.77 32.85 115.88 32.93 116.07 33.01 116.27 33.04 116.36 33.07 116.47 33.13 116.86 33.15 117.22 33.18 118.59 33.21 120.24 33.21 121.44 33.21 122.45 33.18 123.51 33.26 123.62 34.34 123.6 34.45 123.48 34.39 122.28 34.37 121.25 34.34 119.76 34.31 117.92 34.31 117.42 34.28 116.97 34.25 116.55 34.2 116.16 34.17 115.99 34.15 115.82 34.09 115.66 34.01 115.49 33.95 115.34 33.84 115.21 33.76 115.07 33.65 114.93 33.48 114.79 33.34 114.65 33.18 114.54 33.04 114.42 32.88 114.34 32.74 114.29 32.57 114.23 32.41 114.17 32.11 114.12 31.86 114.09 31.67 114.06 31.5 114.06 31.23 114.09 30.98 114.12 30.48 114.2 30.26 114.26 30.04 114.31 29.82 114.39 29.6 114.48 29.22 114.68 28.88 114.84 28.55 115.04 28.25 115.24 28.33 114.31 28.22 114.2 27.12 114.37 27.04 114.51 27.12 115.71 27.18 116.83 27.2 118.45 27.23 119.88 27.23 121.3 27.23 122.34 27.2 123.54 27.29 123.62 28.33 123.6 28.44 123.48 28.44 123.48"/>
      <path class="cls-2" d="M43.68,118.7l-.03-.36v-.39l-.06-.39-.06-.42-.03-.22-.06-.19-.08-.22-.08-.2-.19-.42-.14-.22-.14-.2-.17-.19-.14-.17-.16-.17-.19-.14-.17-.14-.16-.11-.19-.09-.19-.08-.39-.14-.19-.05-.19-.03-.19-.03-.22-.03-.19-.03h-.22l-.25.03h-.25l-.22.06-.22.03-.22.05-.22.06-.19.05-.19.09-.19.11-.19.08-.17.11-.19.14-.14.11-.16.14-.14.17-.14.17-.14.17-.14.17-.11.19-.11.17-.2.42-.14.42-.08.22-.06.22-.08.47-.06.5-.03.28v.53l.03.25.03.26.03.22.08.48.03.11.03.11.08.22.09.2.08.22.08.19.11.2.11.19.06.08.05.09.14.19.14.17.14.17.16.14.17.14.16.14.39.23.38.19.22.09.22.08.22.06.25.06.25.03.25.03.52.03h.55l.25-.03.25-.03.22-.06.19-.06.22-.03.16-.08.36-.14.3-.14.31-.17.27-.14.11-.19.05-1.03-.14-.09-.19.17-.22.17-.3.19-.33.2-.19.11-.19.09-.24.08-.22.06-.25.06-.28.02-.28.03-.3.03h-.16l-.17-.03-.39-.05-.19-.06-.19-.06-.44-.17-.22-.11-.11-.06-.11-.09-.19-.17-.11-.08-.08-.09-.19-.22-.16-.25-.19-.28-.16-.28-.11-.31-.09-.25-.08-.28-.03-.25-.03-.23-.03-.25-.03-.45h6.8l.11-.11h0ZM36.84,117.89l.03-.19.03-.2.14-.5.11-.25.11-.28.19-.28.19-.28.22-.23.22-.19.27-.17.25-.11.3-.11.14-.06.16-.03.14-.03h.16l.3-.03h.19l.22.03.27.06.31.09.16.06.14.06.16.11.14.11.16.14.14.17.3.36.14.25.11.22.05.22.06.22.08.42v.23l.03.19h-5.64Z"/>
      <polygon class="cls-2" points="44.31 121.92 44.28 122.45 44.25 122.67 44.2 122.95 44.28 123.12 44.47 123.23 44.69 123.32 44.94 123.46 45.24 123.57 45.44 123.62 45.6 123.68 46.01 123.74 46.21 123.76 46.46 123.79 46.71 123.82 46.95 123.82 47.28 123.82 47.59 123.79 47.86 123.74 48.13 123.71 48.38 123.62 48.63 123.54 48.85 123.46 49.05 123.37 49.24 123.23 49.4 123.12 49.57 123.01 49.71 122.87 49.84 122.73 49.95 122.59 50.04 122.42 50.12 122.25 50.25 121.95 50.37 121.61 50.39 121.44 50.42 121.27 50.45 121.14 50.45 120.97 50.42 120.75 50.39 120.55 50.37 120.35 50.31 120.16 50.25 119.99 50.18 119.85 50.09 119.71 49.98 119.57 49.87 119.43 49.76 119.32 49.65 119.21 49.54 119.12 49.26 118.95 49.01 118.81 48.77 118.7 48.52 118.59 48.33 118.54 48.13 118.48 47.2 118.23 46.68 118.06 46.46 117.97 46.29 117.92 46.13 117.84 45.96 117.75 45.82 117.67 45.71 117.56 45.6 117.39 45.49 117.22 45.44 117.11 45.41 116.97 45.38 116.83 45.38 116.66 45.38 116.52 45.41 116.36 45.44 116.21 45.49 116.05 45.57 115.91 45.66 115.8 45.74 115.66 45.88 115.54 46.01 115.43 46.15 115.34 46.32 115.26 46.51 115.18 46.73 115.12 46.95 115.09 47.2 115.07 47.45 115.04 47.86 115.07 48.08 115.09 48.25 115.12 48.44 115.15 48.6 115.21 48.77 115.26 48.91 115.32 49.18 115.46 49.4 115.57 49.62 115.71 49.71 115.77 49.79 115.82 49.9 115.8 50.01 114.73 49.93 114.62 49.4 114.39 48.88 114.23 48.6 114.17 48.27 114.12 47.94 114.09 47.59 114.06 47.31 114.09 47.03 114.09 46.76 114.15 46.51 114.17 46.26 114.23 46.04 114.31 45.85 114.37 45.66 114.48 45.47 114.56 45.3 114.68 45.16 114.79 45.02 114.9 44.77 115.15 44.66 115.29 44.59 115.43 44.42 115.74 44.36 115.88 44.33 116.02 44.25 116.33 44.25 116.5 44.25 116.63 44.25 116.86 44.28 117.05 44.31 117.25 44.36 117.42 44.47 117.75 44.56 117.89 44.64 118 44.72 118.14 44.83 118.26 45.05 118.45 45.27 118.62 45.55 118.76 46.07 118.98 46.32 119.06 46.57 119.15 47.42 119.4 47.8 119.51 48.16 119.63 48.49 119.76 48.63 119.85 48.77 119.93 48.88 120.02 48.99 120.13 49.05 120.18 49.1 120.27 49.16 120.41 49.24 120.55 49.26 120.72 49.29 120.91 49.32 121.11 49.29 121.27 49.29 121.41 49.26 121.58 49.21 121.72 49.16 121.84 49.1 121.95 49.01 122.06 48.93 122.17 48.74 122.37 48.55 122.51 48.33 122.65 48.08 122.73 47.8 122.81 47.56 122.87 47.31 122.9 47.06 122.9 46.68 122.87 46.26 122.81 46.01 122.76 45.79 122.67 45.55 122.59 45.3 122.51 45.05 122.37 44.83 122.2 44.64 122.06 44.45 121.86 44.31 121.92 44.31 121.92"/>
      <path class="cls-2" d="M52.9,123.48l-.06-1.79-.05-1.82-.05-1.82v-2.72l.05-1.03-.11-.11-1.07.17-.11.11.05,1.18.03.61.03.64.03,1.26.02,1.17v2.77l-.02,1.4.11.08h1.05l.11-.11h0ZM52.84,111.07v-1.12l-.11-.14-1.16.08-.14.17-.03,1.12.16.14,1.13-.11.14-.14h0Z"/>
      <polygon class="cls-2" points="54.09 121.92 54.06 122.45 54.03 122.67 54 122.95 54.09 123.12 54.25 123.23 54.5 123.32 54.74 123.46 55.05 123.57 55.22 123.62 55.41 123.68 55.79 123.74 56.01 123.76 56.26 123.79 56.48 123.82 56.76 123.82 57.06 123.82 57.39 123.79 57.67 123.74 57.94 123.71 58.19 123.62 58.44 123.54 58.66 123.46 58.85 123.37 59.05 123.23 59.21 123.12 59.37 123.01 59.51 122.87 59.62 122.73 59.76 122.59 59.84 122.42 59.93 122.25 60.06 121.95 60.17 121.61 60.2 121.44 60.23 121.27 60.23 121.14 60.23 120.97 60.23 120.75 60.2 120.55 60.17 120.35 60.12 120.16 60.06 119.99 59.98 119.85 59.9 119.71 59.79 119.57 59.68 119.43 59.57 119.32 59.46 119.21 59.32 119.12 59.07 118.95 58.82 118.81 58.55 118.7 58.33 118.59 58.11 118.54 57.94 118.48 57 118.23 56.48 118.06 56.26 117.97 56.07 117.92 55.93 117.84 55.76 117.75 55.63 117.67 55.52 117.56 55.41 117.39 55.3 117.22 55.24 117.11 55.22 116.97 55.19 116.83 55.16 116.66 55.19 116.52 55.19 116.36 55.24 116.21 55.3 116.05 55.35 115.91 55.46 115.8 55.54 115.66 55.68 115.54 55.82 115.43 55.96 115.34 56.12 115.26 56.32 115.18 56.54 115.12 56.76 115.09 56.98 115.07 57.25 115.04 57.67 115.07 57.86 115.09 58.05 115.12 58.24 115.15 58.41 115.21 58.55 115.26 58.71 115.32 58.99 115.46 59.21 115.57 59.43 115.71 59.51 115.77 59.59 115.82 59.68 115.8 59.81 114.73 59.73 114.62 59.21 114.39 58.69 114.23 58.38 114.17 58.08 114.12 57.75 114.09 57.39 114.06 57.12 114.09 56.81 114.09 56.56 114.15 56.32 114.17 56.07 114.23 55.85 114.31 55.66 114.37 55.46 114.48 55.27 114.56 55.1 114.68 54.97 114.79 54.83 114.9 54.58 115.15 54.47 115.29 54.39 115.43 54.22 115.74 54.17 115.88 54.11 116.02 54.06 116.33 54.06 116.5 54.03 116.63 54.06 116.86 54.09 117.05 54.11 117.25 54.14 117.42 54.28 117.75 54.36 117.89 54.44 118 54.53 118.14 54.64 118.26 54.86 118.45 55.08 118.62 55.35 118.76 55.85 118.98 56.09 119.06 56.35 119.15 57.22 119.4 57.61 119.51 57.97 119.63 58.27 119.76 58.44 119.85 58.57 119.93 58.69 120.02 58.79 120.13 58.85 120.18 58.91 120.27 58.96 120.41 59.01 120.55 59.07 120.72 59.1 120.91 59.13 121.11 59.1 121.27 59.1 121.41 59.05 121.58 59.01 121.72 58.96 121.84 58.91 121.95 58.82 122.06 58.74 122.17 58.55 122.37 58.35 122.51 58.11 122.65 57.86 122.73 57.61 122.81 57.36 122.87 57.12 122.9 56.87 122.9 56.48 122.87 56.04 122.81 55.82 122.76 55.57 122.67 55.35 122.59 55.1 122.51 54.86 122.37 54.64 122.2 54.44 122.06 54.25 121.86 54.09 121.92 54.09 121.92"/>
    </g>
  </g>
</svg>